{"title":"Hana Yori Dango (Anime) TV 1-51 Fin","uid":14656545,"size":69290868057,"categoryP":"video","categoryS":"other","magnet":"?xt=urn:btih:fcc119b8cc342d01ce2b1562f4011d9066f45183&amp;dn=Hana+Yori+Dango+%28Anime%29+TV+1-51+Fin&amp;tr=udp%3A%2F%2Ftracker.leechers-paradise.org%3A6969&amp;tr=udp%3A%2F%2Fzer0day.ch%3A1337&amp;tr=udp%3A%2F%2Fopen.demonii.com%3A1337&amp;tr=udp%3A%2F%2Ftracker.coppersurfer.tk%3A6969&amp;tr=udp%3A%2F%2Fexodus.desync.com%3A6969","seeders":0,"leechers":1,"uploader":null,"files":102,"time":1463701370,"description":"Media Info:\r\nGeneral\r\nUnique ID                                : 254042708417011504409730935976317629927 (0xBF1ED88ED385C699AFDD3FC362BB35E7)\r\nComplete name                            : G:AnimeHana Yori DangoHana Yori Dango - 01 [DVDRip 984x720 x264 AC3].mkv\r\nFormat                                   : Matroska\r\nFormat version                           : Version 2\r\nFile size                                : 1.31 GiB\r\nDuration                                 : 24mn 12s\r\nOverall bit rate                         : 7 763 Kbps\r\nEncoded date                             : UTC 2013-11-15 14:50:01\r\nWriting application                      : mkvmerge v5.8.0 ('No Sleep / Pillow') built on Sep  2 2012 15:37:04\r\nWriting library                          : libebml v1.2.3 + libmatroska v1.3.0\r\n\r\nVideo\r\nID                                       : 1\r\nFormat                                   : AVC\r\nFormat/Info                              : Advanced Video Codec\r\nFormat profile                           : High   \r\nFormat settings, CABAC                   : Yes\r\nFormat settings, ReFrames                : 12 frames\r\nCodec ID                                 : V_MPEG4/ISO/AVC\r\nDuration                                 : 24mn 12s\r\nBit rate                                 : 7 160 Kbps\r\nWidth                                    : 984 pixels\r\nHeight                                   : 720 pixels\r\nDisplay aspect ratio                     : 4:3\r\nFrame rate mode                          : Constant\r\nFrame rate                               : 23.976 fps\r\nColor space                              : YUV\r\nChroma subsampling                       : 4:2:0\r\nBit depth                                : 10 bits\r\nScan type                                : Progressive\r\nBits/(Pixel*Frame)                       : 0.422\r\nStream size                              : 1.21 GiB (92%)\r\nWriting library                          : x264 core 129 r2245+729M 1a52e03\r\nEncoding settings                        : cabac=1 / ref=12 / deblock=1:0:0 / analyse=0x3:0x113 / me=umh / subme=11 / psy=1 / fade_compensate=0.00 / psy_rd=1.00:0.10 / mixed_ref=1 / me_range=32 / chroma_me=1 / trellis=2 / 8x8dct=1 / cqm=0 / deadzone=21,11 / fast_pskip=0 / chroma_qp_offset=-3 / threads=12 / lookahead_threads=3 / sliced_threads=0 / nr=0 / decimate=1 / interlaced=0 / bluray_compat=0 / constrained_intra=0 / fgo=0 / bframes=16 / b_pyramid=2 / b_adapt=2 / b_bias=0 / direct=3 / weightb=1 / open_gop=0 / weightp=2 / keyint=240 / keyint_min=24 / scenecut=40 / intra_refresh=0 / rc_lookahead=60 / rc=crf / mbtree=0 / crf=17.0 / qcomp=0.60 / qpmin=0 / qpmax=81 / qpstep=4 / vbv_maxrate=50000 / vbv_bufsize=62500 / crf_max=0.0 / nal_hrd=none / ip_ratio=1.40 / pb_ratio=1.30 / aq=3:0.80\r\nDefault                                  : Yes\r\nForced                                   : No\r\nColor primaries                          : BT.709\r\nTransfer characteristics                 : BT.709\r\nMatrix coefficients                      : BT.709\r\n\r\nAudio\r\nID                                       : 2\r\nFormat                                   : AC-3\r\nFormat/Info                              : Audio Coding 3\r\nMode extension                           : CM (complete main)\r\nFormat settings, Endianness              : Big\r\nCodec ID                                 : A_AC3\r\nDuration                                 : 24mn 12s\r\nBit rate mode                            : Constant\r\nBit rate                                 : 448 Kbps\r\nChannel(s)                               : 2 channels\r\nChannel positions                        : Front: L R\r\nSampling rate                            : 48.0 KHz\r\nBit depth                                : 16 bits\r\nCompression mode                         : Lossy\r\nDelay relative to video                  : 16ms\r\nStream size                              : 77.6 MiB (6%)\r\nLanguage                                 : Japanese\r\nDefault                                  : Yes\r\nForced                                   : No\r\n\r\nMenu\r\n00:00:00.000                             : ja:Opening\r\n00:01:45.105                             : ja:A-part\r\n00:12:40.510                             : ja:Eyecatch\r\n00:12:57.694                             : ja:B-part\r\n00:21:56.982                             : ja:Ending\r\n00:23:42.546                             : ja:Preview","torrent":{"xt":"urn:btih:fcc119b8cc342d01ce2b1562f4011d9066f45183","amp;dn":"Hana+Yori+Dango+%28Anime%29+TV+1-51+Fin","amp;tr":["udp%3A%2F%2Ftracker.leechers-paradise.org%3A6969","udp%3A%2F%2Fzer0day.ch%3A1337","udp%3A%2F%2Fopen.demonii.com%3A1337","udp%3A%2F%2Ftracker.coppersurfer.tk%3A6969","udp%3A%2F%2Fexodus.desync.com%3A6969"],"infoHash":"fcc119b8cc342d01ce2b1562f4011d9066f45183","infoHashBuffer":{"type":"Buffer","data":[252,193,25,184,204,52,45,1,206,43,21,98,244,1,29,144,102,244,81,131]},"announce":[],"urlList":[]}}